# Blender v3.6.5 OBJ File: ''
# www.blender.org
mtllib ring.mtl
o vsn_mesh_0_b1_bngl01_mesh_0_b1_bngl01.001
v 0.970422 0.011155 2.717520
v 0.979559 0.020291 2.715311
v 0.970422 0.024076 2.715311
v 0.983343 0.011155 2.715311
v 0.961286 0.020291 2.715311
v 0.979559 0.002020 2.715311
v 0.957501 0.011155 2.715311
v 0.970422 -0.001765 2.715311
v 0.961286 0.002020 2.715311
v 0.970422 0.031740 2.711044
v 0.984979 0.025711 2.711044
v 0.949838 0.011155 2.711044
v 0.955868 0.025711 2.711044
v 0.984979 -0.003400 2.711044
v 0.991009 0.011155 2.711044
v 0.955868 -0.003400 2.711044
v 0.970422 -0.009429 2.711044
v 0.953310 0.028267 2.706268
v 0.970422 0.035355 2.706268
v 0.994621 0.011155 2.706268
v 0.987534 0.028267 2.706268
v 0.970422 -0.013044 2.706268
v 0.987534 -0.005956 2.706268
v 0.946224 0.011155 2.706268
v 0.953310 -0.005956 2.706268
v 0.970422 0.036600 2.700985
v 0.988416 0.029148 2.700985
v 0.988416 -0.006836 2.700985
v 0.995868 0.011156 2.700985
v 0.952431 -0.006836 2.700985
v 0.970422 -0.014289 2.700985
v 0.952431 0.029148 2.700985
v 0.944979 0.011156 2.700985
v 0.999132 -0.078688 2.650414
v 0.999132 -0.092587 2.598522
v 1.013206 -0.062100 2.640812
v 0.969808 -0.101442 2.598522
v 1.013206 -0.031138 2.671775
v 0.969808 -0.086357 2.654833
v 0.999132 -0.040716 2.688387
v 0.969808 -0.045144 2.692933
v 1.013206 -0.073433 2.598522
v 0.969808 -0.086357 2.542235
v 0.999132 -0.078688 2.546655
v 1.013206 0.011156 2.683129
v 0.940483 -0.078688 2.650414
v 0.940483 -0.092587 2.598522
v 1.013206 -0.062100 2.556231
v 0.940483 -0.078688 2.546655
v 0.969808 -0.045144 2.501016
v 0.940483 -0.040716 2.508687
v 0.999132 0.011156 2.702281
v 0.940483 -0.040716 2.688361
v 0.969808 0.011155 2.706700
v 0.999132 -0.040716 2.508687
v 1.013206 -0.031139 2.525275
v 0.926625 -0.030220 2.526865
v 0.940483 0.011156 2.494788
v 0.926625 0.011156 2.515778
v 0.926625 -0.071596 2.598522
v 0.926625 -0.060509 2.557145
v 0.940483 0.011155 2.702281
v 0.926625 -0.060509 2.639898
v 0.926625 -0.030220 2.670200
v 0.999132 0.011156 2.494788
v 1.013206 0.011156 2.513942
v 0.969808 0.011156 2.485933
v 0.926625 0.011156 2.681275
v 0.940483 0.101000 2.650414
v 0.940483 0.114898 2.598522
v 0.926625 0.082820 2.639898
v 0.969808 0.123754 2.598522
v 0.926625 0.052531 2.670200
v 0.969808 0.108668 2.654833
v 0.940483 0.063027 2.688387
v 0.969808 0.067455 2.692933
v 0.926625 0.093907 2.598522
v 0.969808 0.108668 2.542235
v 0.940483 0.101000 2.546655
v 0.926625 0.011156 2.681275
v 0.999132 0.101000 2.650414
v 0.999132 0.114898 2.598522
v 0.926625 0.082820 2.557145
v 0.999132 0.100999 2.546655
v 0.969808 0.067455 2.501016
v 0.999132 0.063027 2.508687
v 0.940483 0.011155 2.702281
v 0.999132 0.063027 2.688387
v 0.969808 0.011155 2.706700
v 0.940483 0.063027 2.508687
v 0.926625 0.052531 2.526865
v 1.013206 0.053450 2.525275
v 0.999132 0.011156 2.494788
v 1.013206 0.011156 2.513942
v 1.013206 0.095744 2.598522
v 1.013206 0.084411 2.556231
v 0.999132 0.011156 2.702281
v 1.013206 0.084411 2.640812
v 1.013206 0.053450 2.671775
v 0.940483 0.011156 2.494788
v 0.926625 0.011156 2.515778
v 0.969808 0.011156 2.485933
v 1.013206 0.011156 2.683129
v 0.926625 0.011156 2.681275
v 1.013206 -0.031138 2.671775
v 0.926625 -0.030220 2.670200
v 1.013206 0.011156 2.683129
v 0.926625 -0.030220 2.670200
v 1.013206 -0.062100 2.640812
v 0.926625 -0.060509 2.639898
v 1.013206 -0.031138 2.671775
v 0.926625 -0.060509 2.639898
v 1.013206 -0.073433 2.598522
v 0.926625 -0.071596 2.598522
v 1.013206 -0.062100 2.640812
v 0.926625 -0.071596 2.598522
v 1.013206 -0.062100 2.556231
v 0.926625 -0.060509 2.557145
v 1.013206 -0.073433 2.598522
v 0.926625 -0.060509 2.557145
v 1.013206 -0.031139 2.525275
v 0.926625 -0.030220 2.526865
v 1.013206 -0.062100 2.556231
v 0.926625 -0.030220 2.526865
v 1.013206 0.011156 2.513942
v 0.926625 0.011156 2.515778
v 1.013206 -0.031139 2.525275
v 0.926625 0.011156 2.515778
v 1.013206 0.053450 2.525275
v 0.926625 0.052531 2.526865
v 1.013206 0.011156 2.513942
v 0.926625 0.052531 2.526865
v 1.013206 0.084411 2.556231
v 0.926625 0.082820 2.557145
v 1.013206 0.053450 2.525275
v 0.926625 0.082820 2.557145
v 1.013206 0.095744 2.598522
v 0.926625 0.093907 2.598522
v 1.013206 0.084411 2.556231
v 0.926625 0.093907 2.598522
v 1.013206 0.084411 2.640812
v 0.926625 0.082820 2.639898
v 1.013206 0.095744 2.598522
v 0.926625 0.082820 2.639898
v 1.013206 0.053450 2.671775
v 0.926625 0.052531 2.670200
v 1.013206 0.084411 2.640812
v 0.926625 0.052531 2.670200
v 1.013206 0.011156 2.683129
v 0.926625 0.011156 2.681275
v 1.013206 0.053450 2.671775
vt 0.930147 0.946095
vt 0.841808 0.672246
vt 0.842778 0.946094
vt 0.931116 0.672247
vt 0.851265 0.945882
vt 0.762927 0.672034
vt 0.763897 0.945880
vt 0.852236 0.672033
vt 0.774126 0.945815
vt 0.707872 0.671967
vt 0.708598 0.945815
vt 0.774852 0.671968
vt 0.719482 0.945913
vt 0.631144 0.672068
vt 0.632115 0.945914
vt 0.720454 0.672066
vt 0.638273 0.946149
vt 0.549935 0.672301
vt 0.550903 0.946151
vt 0.639241 0.672304
vt 0.551462 0.946462
vt 0.463123 0.672614
vt 0.464093 0.946461
vt 0.552432 0.672613
vt 0.423095 0.946763
vt 0.511433 0.672915
vt 0.510464 0.946762
vt 0.422125 0.672916
vt 0.520978 0.946976
vt 0.609317 0.673130
vt 0.608348 0.946976
vt 0.520010 0.673127
vt 0.621095 0.947042
vt 0.709433 0.673193
vt 0.708462 0.947041
vt 0.620123 0.673196
vt 0.716801 0.946942
vt 0.783055 0.673096
vt 0.782329 0.946941
vt 0.716075 0.673095
vt 0.793941 0.946705
vt 0.882280 0.672858
vt 0.881310 0.946707
vt 0.792971 0.672859
vt 0.883788 0.946395
vt 0.972127 0.672548
vt 0.971157 0.946396
vt 0.882818 0.672548
vt 0.685177 0.359624
vt 0.757856 0.432303
vt 0.685177 0.462408
vt 0.787961 0.359624
vt 0.612497 0.432303
vt 0.757856 0.286944
vt 0.582393 0.359624
vt 0.685177 0.256839
vt 0.612497 0.286944
vt 0.685177 0.523383
vt 0.800972 0.475419
vt 0.521418 0.359624
vt 0.569381 0.475419
vt 0.800972 0.243828
vt 0.848935 0.359624
vt 0.569381 0.243828
vt 0.685177 0.195864
vt 0.525109 0.519692
vt 0.685177 0.585994
vt 0.911547 0.359624
vt 0.845244 0.519692
vt 0.685177 0.133253
vt 0.845244 0.199556
vt 0.458806 0.359624
vt 0.525109 0.199556
vt 0.685177 0.638587
vt 0.882434 0.556880
vt 0.882434 0.162367
vt 0.964140 0.359624
vt 0.487920 0.162367
vt 0.685177 0.080661
vt 0.487920 0.556880
vt 0.406214 0.359624
vt 0.340404 0.624265
vt 0.340401 0.450725
vt 0.383930 0.636691
vt 0.228617 0.450725
vt 0.383935 0.814214
vt 0.228618 0.618052
vt 0.340403 0.803961
vt 0.228618 0.796637
vt 0.383931 0.450725
vt 0.228618 0.309647
vt 0.340401 0.309647
vt 0.383940 0.979984
vt 0.123813 0.624265
vt 0.123813 0.450725
vt 0.383932 0.309647
vt 0.123813 0.309647
vt 0.228619 0.165506
vt 0.123813 0.165506
vt 0.340404 0.979984
vt 0.123813 0.803961
vt 0.228618 0.979984
vt 0.340400 0.165506
vt 0.383942 0.165506
vt 0.074073 0.165506
vt 0.123813 0.054394
vt 0.074066 0.054394
vt 0.074086 0.450725
vt 0.074080 0.309647
vt 0.123813 0.979984
vt 0.074086 0.636691
vt 0.074081 0.814214
vt 0.340400 0.054394
vt 0.383946 0.054394
vt 0.228618 0.054394
vt 0.074073 0.979984
vt 0.341178 0.624265
vt 0.341178 0.450725
vt 0.383951 0.636691
vt 0.229395 0.450725
vt 0.383946 0.814214
vt 0.229393 0.618052
vt 0.341179 0.803961
vt 0.229395 0.796637
vt 0.383957 0.450725
vt 0.229393 0.309647
vt 0.341177 0.309647
vt 0.383940 0.979984
vt 0.123813 0.624265
vt 0.123813 0.450725
vt 0.383958 0.309647
vt 0.123813 0.309647
vt 0.229394 0.165506
vt 0.123813 0.165506
vt 0.341180 0.979984
vt 0.123813 0.803961
vt 0.229394 0.979984
vt 0.341176 0.165506
vt 0.383953 0.165506
vt 0.074058 0.165506
vt 0.123813 0.054394
vt 0.074066 0.054394
vt 0.074055 0.450725
vt 0.074058 0.309647
vt 0.123813 0.979984
vt 0.074059 0.636691
vt 0.074065 0.814214
vt 0.341176 0.054394
vt 0.383946 0.054394
vt 0.229394 0.054394
vt 0.074073 0.979984
vn 0.0203 0.2585 -0.9658
vn 0.0204 0.2586 -0.9658
vn 0.0207 0.2592 -0.9656
vn 0.0205 0.7071 -0.7068
vn 0.0203 0.7069 -0.7070
vn 0.0204 0.7070 -0.7069
vn 0.0205 0.9657 -0.2588
vn 0.0205 0.9657 0.2588
vn 0.0205 0.7068 0.7071
vn 0.0205 0.7069 0.7070
vn 0.0205 0.2588 0.9657
vn 0.0205 -0.2588 0.9657
vn 0.0205 -0.7068 0.7071
vn 0.0205 -0.7069 0.7070
vn 0.0205 -0.9657 0.2588
vn 0.0205 -0.9657 -0.2588
vn 0.0204 -0.7071 -0.7068
vn 0.0205 -0.7070 -0.7069
vn 0.0205 -0.2588 -0.9657
vn 0.0204 -0.2590 -0.9657
vn 0.0207 -0.2585 -0.9658
vn 0.0205 -0.2589 -0.9657
vn 0.0203 -0.2592 -0.9656
vn 0.0000 -0.0000 1.0000
vn 0.2606 0.2606 0.9296
vn -0.0000 0.3686 0.9296
vn 0.3685 0.0000 0.9296
vn -0.2606 0.2606 0.9296
vn 0.2606 -0.2606 0.9296
vn -0.3686 -0.0000 0.9296
vn -0.0000 -0.3685 0.9296
vn -0.2606 -0.2606 0.9296
vn -0.0000 0.6831 0.7303
vn 0.4830 0.4831 0.7303
vn -0.6831 0.0000 0.7303
vn -0.4830 0.4830 0.7304
vn 0.4831 -0.4830 0.7303
vn 0.6832 -0.0000 0.7302
vn -0.4829 -0.4830 0.7304
vn -0.0000 -0.6831 0.7303
vn -0.6458 0.6458 0.4073
vn 0.0000 0.9133 0.4073
vn 0.9133 0.0000 0.4074
vn 0.6458 0.6458 0.4074
vn -0.0000 -0.9133 0.4073
vn 0.6458 -0.6458 0.4074
vn -0.9133 -0.0000 0.4073
vn -0.6459 -0.6458 0.4073
vn 0.0000 0.9733 0.2294
vn 0.6882 0.6882 0.2296
vn 0.6882 -0.6882 0.2295
vn 0.9733 0.0000 0.2297
vn -0.6883 -0.6883 0.2292
vn -0.0000 -0.9733 0.2294
vn -0.6882 0.6883 0.2292
vn -0.9734 -0.0000 0.2293
vn 0.5491 -0.7198 0.4247
vn 0.5537 -0.8327 -0.0000
vn 0.8060 -0.5127 0.2958
vn -0.0000 -1.0000 -0.0001
vn 0.8061 -0.2960 0.5123
vn -0.0000 -0.8566 0.5160
vn 0.5130 -0.4207 0.7482
vn -0.0003 -0.4924 0.8704
vn 0.8059 -0.5921 0.0000
vn -0.0000 -0.8660 -0.5000
vn 0.5536 -0.7212 -0.4164
vn 0.7960 -0.1567 0.5847
vn -0.5674 -0.7091 0.4187
vn -0.5719 -0.8203 -0.0000
vn 0.8059 -0.5128 -0.2961
vn -0.5718 -0.7104 -0.4102
vn -0.0000 -0.5000 -0.8660
vn -0.5719 -0.4102 -0.7104
vn 0.4779 -0.2273 0.8485
vn -0.5319 -0.4148 0.7383
vn -0.0001 -0.2520 0.9677
vn 0.5537 -0.4163 -0.7212
vn 0.8059 -0.2960 -0.5128
vn -0.8345 -0.2755 -0.4772
vn -0.5585 -0.2147 -0.8012
vn -0.8256 -0.1460 -0.5451
vn -0.8345 -0.5509 -0.0000
vn -0.8345 -0.4771 -0.2756
vn -0.4968 -0.2248 0.8382
vn -0.8346 -0.4771 0.2754
vn -0.8344 -0.2757 0.4773
vn 0.5404 -0.2178 -0.8127
vn 0.7959 -0.1567 -0.5848
vn 0.0000 -0.2588 -0.9659
vn -0.8258 -0.1458 0.5448
vn -0.5673 0.7091 0.4187
vn -0.5719 0.8203 -0.0001
vn -0.8346 0.4771 0.2752
vn 0.0000 1.0000 -0.0001
vn -0.8346 0.2754 0.4770
vn 0.0000 0.8566 0.5160
vn -0.5317 0.4148 0.7384
vn 0.0000 0.4925 0.8703
vn -0.8345 0.5510 -0.0000
vn 0.0000 0.8660 -0.5000
vn -0.5718 0.7105 -0.4102
vn -0.8257 0.1459 0.5448
vn 0.5491 0.7198 0.4248
vn 0.5537 0.8327 -0.0000
vn -0.8345 0.4771 -0.2755
vn 0.5536 0.7212 -0.4164
vn 0.0000 0.5000 -0.8660
vn 0.5537 0.4164 -0.7211
vn -0.4970 0.2245 0.8382
vn 0.5131 0.4206 0.7482
vn 0.0000 0.2519 0.9678
vn -0.5719 0.4101 -0.7104
vn -0.8345 0.2754 -0.4772
vn 0.8059 0.2960 -0.5128
vn 0.5404 0.2178 -0.8127
vn 0.7959 0.1567 -0.5848
vn 0.8059 0.5921 -0.0000
vn 0.8058 0.5128 -0.2961
vn 0.4780 0.2274 0.8484
vn 0.8060 0.5126 0.2958
vn 0.8061 0.2960 0.5125
vn -0.5585 0.2147 -0.8012
vn -0.8256 0.1460 -0.5451
vn -0.0000 0.2588 -0.9659
vn 0.7958 0.1570 0.5848
usemtl b1_bangle01_d01_mat.001
s off
f 104/1/1 105/2/1 106/3/1
f 104/1/2 107/4/3 105/2/3
f 108/5/4 109/6/5 110/7/4
f 108/5/6 111/8/6 109/6/6
f 112/9/7 113/10/7 114/11/7
f 112/9/7 115/12/7 113/10/7
f 116/13/8 117/14/8 118/15/8
f 116/13/8 119/16/8 117/14/8
f 120/17/9 121/18/9 122/19/9
f 120/17/10 123/20/10 121/18/10
f 124/21/11 125/22/11 126/23/11
f 124/21/11 127/24/11 125/22/11
f 128/25/12 129/26/12 130/27/12
f 128/25/12 131/28/12 129/26/12
f 132/29/13 133/30/13 134/31/13
f 132/29/14 135/32/14 133/30/14
f 136/33/15 137/34/15 138/35/15
f 136/33/15 139/36/15 137/34/15
f 140/37/16 141/38/16 142/39/16
f 140/37/16 143/40/16 141/38/16
f 144/41/17 145/42/17 146/43/17
f 144/41/18 147/44/18 145/42/18
f 148/45/19 149/46/20 150/47/21
f 148/45/22 151/48/23 149/46/23
s 1
f 1/49/24 2/50/25 3/51/26
f 1/49/24 4/52/27 2/50/25
f 1/49/24 3/51/26 5/53/28
f 1/49/24 6/54/29 4/52/27
f 1/49/24 5/53/28 7/55/30
f 1/49/24 8/56/31 6/54/29
f 1/49/24 7/55/30 9/57/32
f 1/49/24 9/57/32 8/56/31
f 2/50/25 10/58/33 3/51/26
f 2/50/25 4/52/27 11/59/34
f 2/50/25 11/59/34 10/58/33
f 5/53/28 12/60/35 7/55/30
f 5/53/28 3/51/26 13/61/36
f 5/53/28 13/61/36 12/60/35
f 3/51/26 10/58/33 13/61/36
f 6/54/29 8/56/31 14/62/37
f 6/54/29 15/63/38 4/52/27
f 6/54/29 14/62/37 15/63/38
f 4/52/27 15/63/38 11/59/34
f 9/57/32 7/55/30 16/64/39
f 9/57/32 17/65/40 8/56/31
f 9/57/32 16/64/39 17/65/40
f 8/56/31 17/65/40 14/62/37
f 7/55/30 12/60/35 16/64/39
f 10/58/33 18/66/41 13/61/36
f 10/58/33 11/59/34 19/67/42
f 10/58/33 19/67/42 18/66/41
f 15/63/38 14/62/37 20/68/43
f 15/63/38 21/69/44 11/59/34
f 15/63/38 20/68/43 21/69/44
f 11/59/34 21/69/44 19/67/42
f 17/65/40 16/64/39 22/70/45
f 17/65/40 23/71/46 14/62/37
f 17/65/40 22/70/45 23/71/46
f 14/62/37 23/71/46 20/68/43
f 12/60/35 13/61/36 24/72/47
f 12/60/35 25/73/48 16/64/39
f 12/60/35 24/72/47 25/73/48
f 16/64/39 25/73/48 22/70/45
f 13/61/36 18/66/41 24/72/47
f 21/69/44 26/74/49 19/67/42
f 21/69/44 20/68/43 27/75/50
f 21/69/44 27/75/50 26/74/49
f 23/71/46 22/70/45 28/76/51
f 23/71/46 29/77/52 20/68/43
f 23/71/46 28/76/51 29/77/52
f 29/77/52 27/75/50 20/68/43
f 25/73/48 24/72/47 30/78/53
f 25/73/48 31/79/54 22/70/45
f 25/73/48 30/78/53 31/79/54
f 31/79/54 28/76/51 22/70/45
f 18/66/41 19/67/42 32/80/55
f 18/66/41 33/81/56 24/72/47
f 18/66/41 32/80/55 33/81/56
f 33/81/56 30/78/53 24/72/47
f 32/80/55 19/67/42 26/74/49
f 34/82/57 35/83/58 36/84/59
f 34/82/57 37/85/60 35/83/58
f 34/82/57 36/84/59 38/86/61
f 34/82/57 39/87/62 37/85/60
f 34/82/57 38/86/61 40/88/63
f 34/82/57 41/89/64 39/87/62
f 34/82/57 40/88/63 41/89/64
f 35/83/58 42/90/65 36/84/59
f 35/83/58 37/85/60 43/91/66
f 35/83/58 44/92/67 42/90/65
f 35/83/58 43/91/66 44/92/67
f 38/86/61 45/93/68 40/88/63
f 39/87/62 41/89/64 46/94/69
f 39/87/62 47/95/70 37/85/60
f 39/87/62 46/94/69 47/95/70
f 42/90/65 44/92/67 48/96/71
f 43/91/66 37/85/60 49/97/72
f 43/91/66 50/98/73 44/92/67
f 43/91/66 49/97/72 51/99/74
f 43/91/66 51/99/74 50/98/73
f 37/85/60 47/95/70 49/97/72
f 45/93/68 52/100/75 40/88/63
f 41/89/64 53/101/76 46/94/69
f 41/89/64 40/88/63 54/102/77
f 41/89/64 54/102/77 53/101/76
f 40/88/63 52/100/75 54/102/77
f 48/96/71 44/92/67 55/103/78
f 48/96/71 55/103/78 56/104/79
f 44/92/67 50/98/73 55/103/78
f 51/99/74 49/97/72 57/105/80
f 51/99/74 58/106/81 50/98/73
f 51/99/74 57/105/80 59/107/82
f 51/99/74 59/107/82 58/106/81
f 47/95/70 46/94/69 60/108/83
f 47/95/70 61/109/84 49/97/72
f 47/95/70 60/108/83 61/109/84
f 61/109/84 57/105/80 49/97/72
f 53/101/76 54/102/77 62/110/85
f 53/101/76 63/111/86 46/94/69
f 53/101/76 62/110/85 64/112/87
f 53/101/76 64/112/87 63/111/86
f 63/111/86 60/108/83 46/94/69
f 56/104/79 55/103/78 65/113/88
f 56/104/79 65/113/88 66/114/89
f 50/98/73 58/106/81 67/115/90
f 50/98/73 67/115/90 55/103/78
f 55/103/78 67/115/90 65/113/88
f 62/110/85 68/116/91 64/112/87
f 69/117/92 70/118/93 71/119/94
f 69/117/92 72/120/95 70/118/93
f 69/117/92 71/119/94 73/121/96
f 69/117/92 74/122/97 72/120/95
f 69/117/92 73/121/96 75/123/98
f 69/117/92 76/124/99 74/122/97
f 69/117/92 75/123/98 76/124/99
f 70/118/93 77/125/100 71/119/94
f 70/118/93 72/120/95 78/126/101
f 70/118/93 79/127/102 77/125/100
f 70/118/93 78/126/101 79/127/102
f 73/121/96 80/128/103 75/123/98
f 74/122/97 76/124/99 81/129/104
f 74/122/97 82/130/105 72/120/95
f 74/122/97 81/129/104 82/130/105
f 77/125/100 79/127/102 83/131/106
f 78/126/101 72/120/95 84/132/107
f 78/126/101 85/133/108 79/127/102
f 78/126/101 84/132/107 86/134/109
f 78/126/101 86/134/109 85/133/108
f 72/120/95 82/130/105 84/132/107
f 80/128/103 87/135/110 75/123/98
f 76/124/99 88/136/111 81/129/104
f 76/124/99 75/123/98 89/137/112
f 76/124/99 89/137/112 88/136/111
f 75/123/98 87/135/110 89/137/112
f 83/131/106 79/127/102 90/138/113
f 83/131/106 90/138/113 91/139/114
f 79/127/102 85/133/108 90/138/113
f 86/134/109 84/132/107 92/140/115
f 86/134/109 93/141/116 85/133/108
f 86/134/109 92/140/115 94/142/117
f 86/134/109 94/142/117 93/141/116
f 82/130/105 81/129/104 95/143/118
f 82/130/105 96/144/119 84/132/107
f 82/130/105 95/143/118 96/144/119
f 96/144/119 92/140/115 84/132/107
f 88/136/111 89/137/112 97/145/120
f 88/136/111 98/146/121 81/129/104
f 88/136/111 97/145/120 99/147/122
f 88/136/111 99/147/122 98/146/121
f 98/146/121 95/143/118 81/129/104
f 91/139/114 90/138/113 100/148/123
f 91/139/114 100/148/123 101/149/124
f 85/133/108 93/141/116 102/150/125
f 85/133/108 102/150/125 90/138/113
f 90/138/113 102/150/125 100/148/123
f 97/145/120 103/151/126 99/147/122
